<?xml version="1.0" standalone="no"?>
<!DOCTYPE svg PUBLIC "-//W3C//DTD SVG 20010904//EN"
 "http://www.w3.org/TR/2001/REC-SVG-20010904/DTD/svg10.dtd">
<svg version="1.0" xmlns="http://www.w3.org/2000/svg"
 width="1080.000000pt" height="1080.000000pt" viewBox="0 0 1080.000000 1080.000000"
 preserveAspectRatio="xMidYMid meet">
<g transform="translate(0.000000,1080.000000) scale(0.100000,-0.100000)"
fill="#FFFFFF" stroke="none">
<path d="M470 7802 c0 -5 5 -67 10 -137 40 -483 233 -893 576 -1225 364 -351
819 -530 1348 -530 l122 0 12 -127 c36 -377 185 -698 447 -958 60 -60 151
-139 200 -173 110 -78 289 -167 413 -207 l92 -29 0 -403 0 -403 940 0 940 0 0
380 0 380 973 -2 972 -3 56 -26 c71 -33 125 -87 158 -158 24 -52 26 -68 29
-221 2 -99 -1 -188 -8 -225 -29 -152 -127 -278 -268 -348 l-85 -42 -772 -3
-772 -2 -7 -598 c-3 -328 -9 -760 -12 -960 l-7 -363 904 4 c778 3 920 6 1019
20 584 85 1063 290 1510 646 124 99 345 320 448 449 322 404 540 889 621 1389
35 212 44 391 38 746 -6 347 -15 449 -62 682 -203 1004 -915 1853 -1877 2239
-215 86 -437 147 -688 188 l-135 23 -3567 2 c-2014 2 -3568 -1 -3568 -5z
m7020 -415 c313 -53 529 -111 755 -202 621 -249 1081 -666 1368 -1241 362
-724 439 -1499 215 -2184 -57 -174 -174 -426 -236 -508 -17 -22 -17 -17 -1 95
55 374 43 804 -32 1164 -185 892 -789 1509 -1699 1733 -312 77 -38 70 -3105
76 l-2750 6 -85 21 c-397 99 -664 316 -845 686 -60 123 -135 323 -135 361 0
15 243 16 3223 13 3037 -2 3228 -3 3327 -20z m51 -1495 c328 -75 598 -192 830
-358 98 -71 279 -241 359 -339 185 -227 349 -564 419 -862 35 -150 51 -289 51
-450 0 -326 -70 -612 -227 -928 -35 -71 -67 -133 -71 -137 -4 -4 -7 91 -8 210
0 243 -16 384 -63 577 -157 641 -575 1043 -1221 1175 -165 34 -407 39 -2030
40 -872 0 -1533 4 -1585 10 -127 13 -251 51 -380 115 -135 66 -217 128 -326
243 -101 106 -173 210 -244 357 -48 97 -111 268 -129 348 l-6 27 2267 -3 2268
-3 96 -22z"/>
<path d="M3690 2385 l0 -955 938 0 939 0 6 233 c4 127 7 557 7 955 l0 722
-945 0 -945 0 0 -955z"/>
</g>
</svg>
